<svg width="320" height="47.6" xmlns="http://www.w3.org/2000/svg">
 <style type="text/css">.st0{fill:#FFFFFF;}
	.st1{fill:#EE0000;}</style>

 <g>
  <title>background</title>
  <rect fill="none" id="canvas_background" height="49.6" width="322" y="-1" x="-1"/>
 </g>
 <g>
  <title>Layer 1</title>
  <path id="svg_27" d="m25.3,16.5c2.5,0 6.1,-0.5 6.1,-3.5c0,-0.2 0,-0.5 -0.1,-0.7l-1.5,-6.4c-0.3,-1.4 -0.6,-2.1 -3.1,-3.3c-1.9,-1 -6.1,-2.6 -7.4,-2.6c-1.2,0 -1.5,1.5 -2.9,1.5c-1.3,0 -2.3,-1.1 -3.6,-1.1c-1.2,0 -2,0.8 -2.6,2.5c0,0 -1.7,4.7 -1.9,5.4c0,0.1 -0.1,0.3 0,0.4c0.1,1.8 7.3,7.8 17,7.8m6.5,-2.2c0.3,1.6 0.3,1.8 0.3,2c0,2.8 -3.1,4.3 -7.3,4.3c-9.3,0 -17.5,-5.5 -17.5,-9.1c0,-0.5 0.1,-1 0.3,-1.5c-3.3,0.3 -7.6,0.9 -7.6,4.7c0,6.3 14.9,14 26.6,14c9,0 11.3,-4.1 11.3,-7.3c0,-2.6 -2.2,-5.4 -6.1,-7.1" class="st1"/>
  <path id="svg_28" d="m31.8,14.3c0.3,1.6 0.3,1.8 0.3,2c0,2.8 -3.1,4.3 -7.3,4.3c-9.3,0 -17.5,-5.5 -17.5,-9.1c0,-0.5 0.1,-1 0.3,-1.5l0.7,-1.8c0,0.1 -0.1,0.3 0,0.4c0,1.8 7.2,7.9 16.9,7.9c2.5,0 6.1,-0.5 6.1,-3.5c0,-0.2 0,-0.5 -0.1,-0.7l0.6,2z"/>
  <path id="svg_29" d="m115.4,18.4c0,2.4 1.4,3.5 4,3.5c0.8,0 1.6,-0.1 2.4,-0.3l0,-2.7c-0.5,0.2 -1,0.2 -1.5,0.2c-1.1,0 -1.5,-0.3 -1.5,-1.3l0,-4.2l3.1,0l0,-2.8l-3.1,0l0,-3.7l-3.4,0.7l0,2.9l-2.2,0l0,2.8l2.2,0l0,4.9zm-10.6,0c0,-0.7 0.7,-1.1 1.8,-1.1c0.7,0 1.4,0.1 2,0.3l0,1.4c-0.6,0.4 -1.4,0.5 -2.1,0.5c-1,0.1 -1.7,-0.4 -1.7,-1.1m1,3.5c1.2,0 2.2,-0.3 3.1,-0.9l0,0.7l3.3,0l0,-7.1c0,-2.7 -1.8,-4.2 -4.9,-4.2c-1.7,0 -3.4,0.4 -5.2,1.2l1.2,2.5c1.3,-0.5 2.4,-0.9 3.4,-0.9c1.4,0 2.1,0.5 2.1,1.7l0,0.5c-0.8,-0.2 -1.7,-0.3 -2.5,-0.3c-2.9,0 -4.6,1.2 -4.6,3.3c0.1,2.1 1.7,3.5 4.1,3.5m-18.4,-0.1l3.6,0l0,-5.8l6,0l0,5.7l3.6,0l0,-14.6l-3.6,0l0,5.6l-6,0l0,-5.6l-3.6,0l0,14.7zm-13.7,-5.6c0,-1.6 1.3,-2.8 2.9,-2.8c0.9,0 1.7,0.3 2.3,0.9l0,3.9c-0.6,0.6 -1.5,0.9 -2.3,0.9c-1.6,-0.1 -2.9,-1.3 -2.9,-2.9m5.3,5.5l3.4,0l0,-15.3l-3.4,0.7l0,4.2c-0.9,-0.5 -1.8,-0.7 -2.8,-0.7c-3.2,0 -5.8,2.5 -5.8,5.7c0,3.1 2.4,5.7 5.6,5.7c0,0 0.1,0 0.1,0c1.1,0 2.1,-0.3 3,-1l0,0.7l-0.1,0zm-15.4,-8.5c1.1,0 2,0.7 2.3,1.8l-4.6,0c0.4,-1.1 1.2,-1.8 2.3,-1.8m-5.7,3c0,3.2 2.6,5.7 6,5.7c1.9,0 3.2,-0.5 4.6,-1.7l-2.2,-2c-0.5,0.5 -1.3,0.8 -2.2,0.8c-1.2,0 -2.3,-0.7 -2.7,-1.8l7.9,0l0,-0.8c0,-3.5 -2.4,-6.1 -5.6,-6.1c-3.1,0 -5.7,2.5 -5.8,5.6c0,0.2 0,0.3 0,0.3m-5.8,-6c1.2,0 1.9,0.8 1.9,1.7s-0.7,1.7 -1.9,1.7l-3.6,0l0,-3.3l3.6,0l0,-0.1zm-7.2,11.6l3.6,0l0,-5.3l2.7,0l2.8,5.3l4,0l-3.2,-5.9c1.7,-0.7 2.8,-2.3 2.8,-4.1c0,-2.6 -2.1,-4.7 -5.2,-4.7l-7.5,0l0,14.7z" class="st0"/>
  <text stroke="null" transform="matrix(0.7906373143196106,0,0,0.7906373143196106,-89.19897748995577,13.53480073343962) " font-style="normal" xml:space="preserve" text-anchor="start" font-family="'Trebuchet MS', Gadget, sans-serif" font-size="24" id="svg_30" y="35.253113" x="171" stroke-opacity="null" stroke-width="0" fill="#ffffff">Survey Demo</text>
 </g>
</svg>